<svg xmlns="http://www.w3.org/2000/svg" viewBox="0 0 431.1 83"><linearGradient id="A" gradientUnits="userSpaceOnUse" x1="55.2" y1="1.6" x2="55.2" y2="81.8"><stop offset="0" stop-color="#049696"/><stop offset="1" stop-color="#207da9"/></linearGradient><path d="M8.6 1.6h93.2c4.8 0 8.6 3.9 8.6 8.6v63c0 4.8-3.9 8.6-8.6 8.6H8.6C3.9 81.8 0 78 0 73.2v-63c0-4.8 3.9-8.6 8.6-8.6z" fill="url(#A)"/><path d="M103.7 31.5c0-5.3-4.3-9.7-9.6-9.7H58.9v19.4h35.2c5.3 0 9.6-4.3 9.6-9.7zm0 20.5c0-5.3-4.3-9.7-9.6-9.7H58.9v19.4h35.2c5.3 0 9.6-4.3 9.6-9.7.1.1.1 0 0 0zm-71.3-9.7v-1.1h25.8v-1.6c0-9.7-7.9-17.6-17.6-17.6H24.2c-9.7 0-17.5 7.7-17.6 17.4v4.8c0 9.7 7.9 17.6 17.6 17.6h16.4c9.7 0 17.6-7.9 17.6-17.6v-1.9H32.4z" fill="#fff"/><path d="M194.4 67.7h-12.9l8.1-49.8h12.8zM241 19.2a32.5 32.5 0 0 0-11.5-2.1c-12.7 0-21.6 6.8-21.7 16.4-.1 7.1 6.4 11.1 11.3 13.5s6.7 4 6.7 6.2c0 3.3-4 4.9-7.7 4.9-4.2.1-8.3-.8-12.1-2.6l-1.7-.8-1.8 11.2c4.6 1.8 9.4 2.7 14.3 2.6 13.5 0 22.3-6.7 22.4-17 0-5.7-3.4-10-10.8-13.5-4.5-2.3-7.2-3.8-7.2-6.1 0-2.1 2.3-4.3 7.4-4.3 3.3-.1 6.6.6 9.6 1.9l1.2.5 1.6-10.8zM258.1 50l5.1-13.9s1.1-2.9 1.7-4.8l.9 4.3 3 14.4h-10.7zm15.8-32.1H264c-3.1 0-5.4.9-6.7 4.1l-19.1 45.6h13.5l2.7-7.4h16.5l1.5 7.5h11.9l-10.4-49.8zm-103.1 0l-12.6 33.9-1.4-6.9c-2.3-7.9-9.6-16.6-17.8-20.8l11.5 43.5h13.6l20.2-49.7h-13.5z" fill="#2394bc"/><path d="M146.5 17.9h-20.7l-.2 1c16.1 4.1 26.8 14.1 31.2 26L152.3 22c-.8-3.1-3-3.9-5.8-4.1z" fill="#efc75e"/><path d="M348 10.6h38.1v62.2H348z" fill="#f4824a"/><path d="M351.9 41.7c0-12.1 5.6-23.6 15.1-31.1-17.1-13.5-42-10.5-55.5 6.6s-10.5 42.1 6.7 55.6c14.4 11.3 34.6 11.3 48.9 0-9.6-7.5-15.2-19-15.2-31.1z" fill="#e2574c"/><path d="M431.1 41.7c0 21.9-17.8 39.5-39.6 39.5-8.9 0-17.4-3-24.4-8.5 17.2-13.5 20.2-38.4 6.7-55.6-1.9-2.5-4.2-4.7-6.7-6.7 17.2-13.5 42.1-10.5 55.6 6.7 5.4 7.1 8.3 15.7 8.4 24.6z" fill="#f4b459"/></svg>